<svg width="220" height="166" fill="none" xmlns="http://www.w3.org/2000/svg"><g filter="url(#a)" clip-path="url(#b)"><path d="M198 18H26a4 4 0 0 0-4 4v122a4 4 0 0 0 4 4h172a4 4 0 0 0 4-4V22a4 4 0 0 0-4-4z" fill="#fff"/><path d="M190 44H74a2 2 0 0 0-2 2v68a2 2 0 0 0 2 2h116a2 2 0 0 0 2-2V46a2 2 0 0 0-2-2zm0 82H74a2 2 0 0 0-2 2v18a2 2 0 0 0 2 2h116a2 2 0 0 0 2-2v-18a2 2 0 0 0-2-2z" fill="#F0F1F2"/><path d="M108 28H75a3 3 0 1 0 0 6h33a3 3 0 1 0 0-6z" fill="#B6BABF"/><path d="M62 18H26a4 4 0 0 0-4 4v122a4 4 0 0 0 4 4h36V18z" fill="#00735C"/><path d="M30 31.799c1.763 0 1.861-1.774 3.918-1.774 2.107 0 2.107 2 4.164 2 2.057 0 2.155-1.773 4.114-1.773 1.96 0 1.91 1.773 3.918 1.773s2.155-1.773 4.066-1.773c1.91 0 2.596 1.773 3.82 1.773" stroke="#00996E" stroke-width="2" stroke-linecap="round" stroke-linejoin="round"/></g><g filter="url(#c)"><rect x="12" y="53" width="100" height="40" rx="4" fill="#fff"/></g><path fill-rule="evenodd" clip-rule="evenodd" d="M26 73.427C26 67.117 31.116 62 37.427 62c6.31 0 11.427 5.116 11.427 11.427 0 6.31-5.117 11.427-11.427 11.427S26 79.737 26 73.427zm3.05-4.155a9.37 9.37 0 0 1 6.039-4.9c-.2.385-.414.822-.627 1.307a21.054 21.054 0 0 0-1.21 3.593h-4.203zm-.74 2.077h4.569a17.31 17.31 0 0 0-.127 2.078c0 .714.046 1.408.127 2.077h-4.57a9.38 9.38 0 0 1 0-4.155zm6.578 2.078c0 .715.053 1.41.144 2.077h5.31c.09-.667.143-1.362.143-2.077 0-.715-.052-1.41-.143-2.078h-5.31a15.389 15.389 0 0 0-.144 2.078zm7.606-2.078c.081.67.127 1.364.127 2.078 0 .714-.046 1.408-.127 2.077h4.05a9.375 9.375 0 0 0 .232-2.077c0-.714-.08-1.41-.232-2.078h-4.05zm-2.57 6.233H35.45a19.22 19.22 0 0 0 .979 2.787 19.05 19.05 0 0 0 1.258 2.391c.058-.093.125-.2.198-.323.287-.482.673-1.187 1.06-2.068.352-.803.702-1.743.979-2.787zm.453 4.719a21.503 21.503 0 0 0 1.744-4.719h3.683a9.378 9.378 0 0 1-5.427 4.719zm1.744-13.03a21.063 21.063 0 0 0-1.21-3.592c-.18-.41-.36-.787-.534-1.126a9.378 9.378 0 0 1 5.427 4.719h-3.683zm-4.434-5.177a19.055 19.055 0 0 1 1.258 2.391c.352.802.702 1.743.979 2.787H35.45a19.22 19.22 0 0 1 .979-2.787 19.05 19.05 0 0 1 1.258-2.391zM29.05 77.582h4.202c.325 1.372.77 2.588 1.21 3.592.213.485.426.923.627 1.307a9.37 9.37 0 0 1-6.04-4.899z" fill="#9FA5AB"/><path d="M58.012 78.903h2.228l1.653-6.76 1.514 6.76h2.246l2.663-10.339h-2.124l-1.67 7.136-1.602-7.136h-1.862L59.334 75.7l-1.583-7.136h-2.333l2.594 10.339zm14.683 0h2.229l1.653-6.76 1.514 6.76h2.246L83 68.565h-2.124l-1.67 7.136-1.602-7.136h-1.862l-1.724 7.136-1.584-7.136h-2.332l2.593 10.338zm14.685 0h2.228l1.653-6.76 1.514 6.76h2.246l2.663-10.338H95.56l-1.672 7.136-1.6-7.136h-1.863l-1.723 7.136-1.584-7.136h-2.332l2.593 10.338z" fill="#42474C"/><defs><filter id="a" x="10.07" y="7.626" width="203.86" height="153.86" filterUnits="userSpaceOnUse" color-interpolation-filters="sRGB"><feFlood flood-opacity="0" result="BackgroundImageFix"/><feColorMatrix in="SourceAlpha" values="0 0 0 0 0 0 0 0 0 0 0 0 0 0 0 0 0 0 127 0" result="hardAlpha"/><feOffset dy="1.556"/><feGaussianBlur stdDeviation="5.965"/><feColorMatrix values="0 0 0 0 0 0 0 0 0 0 0 0 0 0 0 0 0 0 0.09 0"/><feBlend in2="BackgroundImageFix" result="effect1_dropShadow_2153_66906"/><feColorMatrix in="SourceAlpha" values="0 0 0 0 0 0 0 0 0 0 0 0 0 0 0 0 0 0 127 0" result="hardAlpha"/><feOffset dy="1.037"/><feGaussianBlur stdDeviation=".778"/><feColorMatrix values="0 0 0 0 0 0 0 0 0 0 0 0 0 0 0 0 0 0 0.12 0"/><feBlend in2="effect1_dropShadow_2153_66906" result="effect2_dropShadow_2153_66906"/><feBlend in="SourceGraphic" in2="effect2_dropShadow_2153_66906" result="shape"/></filter><filter id="c" x=".07" y="42.626" width="123.86" height="63.86" filterUnits="userSpaceOnUse" color-interpolation-filters="sRGB"><feFlood flood-opacity="0" result="BackgroundImageFix"/><feColorMatrix in="SourceAlpha" values="0 0 0 0 0 0 0 0 0 0 0 0 0 0 0 0 0 0 127 0" result="hardAlpha"/><feOffset dy="1.556"/><feGaussianBlur stdDeviation="5.965"/><feColorMatrix values="0 0 0 0 0 0 0 0 0 0 0 0 0 0 0 0 0 0 0.09 0"/><feBlend in2="BackgroundImageFix" result="effect1_dropShadow_2153_66906"/><feColorMatrix in="SourceAlpha" values="0 0 0 0 0 0 0 0 0 0 0 0 0 0 0 0 0 0 127 0" result="hardAlpha"/><feOffset dy="1.037"/><feGaussianBlur stdDeviation=".778"/><feColorMatrix values="0 0 0 0 0 0 0 0 0 0 0 0 0 0 0 0 0 0 0.12 0"/><feBlend in2="effect1_dropShadow_2153_66906" result="effect2_dropShadow_2153_66906"/><feBlend in="SourceGraphic" in2="effect2_dropShadow_2153_66906" result="shape"/></filter><clipPath id="b"><path fill="#fff" transform="translate(12 8)" d="M0 0h200v150H0z"/></clipPath></defs></svg>