<svg xmlns="http://www.w3.org/2000/svg" xmlns:xlink="http://www.w3.org/1999/xlink" height="100%" width="100%" version="1.1" id="Layer_1" viewBox="0 0 512.001 512.001" xml:space="preserve">
<path style="fill:#CAD1D8;" d="M24,16h464c13.254,0,24,10.745,24,24v432c0,13.254-10.745,24-24,24H24C10.745,496,0,485.255,0,472V40  C0,26.745,10.745,16,24,16z"/>
<path style="fill:#FFFFFF;" d="M24,80h464c4.418,0,8,3.582,8,8v384c0,4.418-3.582,8-8,8H24c-4.418,0-8-3.582-8-8V88  C16,83.582,19.582,80,24,80z"/>







<g>
	<circle style="fill:#CAD1D8;" cx="256" cy="448" r="7.998"/>
	<circle style="fill:#CAD1D8;" cx="224" cy="448" r="7.998"/>
	<circle style="fill:#CAD1D8;" cx="288" cy="448" r="7.998"/>
</g>
<g>
	<circle style="fill:#9BA7AF;" cx="24.002" cy="47.995" r="7.998"/>
	<circle style="fill:#9BA7AF;" cx="56.002" cy="47.995" r="7.998"/>
	<circle style="fill:#9BA7AF;" cx="88.002" cy="47.995" r="7.998"/>
</g>
<g>
	<path style="fill:#595A66;" d="M104,112L104,112c0,4.418-3.582,8-8,8H56c-4.418,0-8-3.582-8-8l0,0c0-4.418,3.582-8.001,8-8.001h40   C100.418,104,104,107.582,104,112z"/>
	<path style="fill:#595A66;" d="M464,112L464,112c0,4.418-3.582,8-8,8h-32c-4.418,0-8-3.582-8-8l0,0c0-4.418,3.582-8.001,8-8.001h32   C460.418,104,464,107.582,464,112z"/>
	<path style="fill:#595A66;" d="M400,112L400,112c0,4.418-3.582,8-8,8h-32c-4.418,0-8-3.582-8-8l0,0c0-4.418,3.582-8.001,8-8.001h32   C396.418,104,400,107.582,400,112z"/>
	<path style="fill:#595A66;" d="M336,112L336,112c0,4.418-3.582,8-8,8h-32c-4.418,0-8-3.582-8-8l0,0c0-4.418,3.582-8.001,8-8.001h32   C332.418,104,336,107.582,336,112z"/>
</g>
<path style="fill:#E2E5E7;" d="M120,40h368c4.418,0,8,3.582,8,8l0,0c0,4.418-3.582,8-8,8H120c-4.418,0-8-3.582-8-8l0,0  C112,43.582,115.582,40,120,40z"/>
</svg>