
<svg width="100" height="70" viewBox="0 0 100 70" fill="none" xmlns="http://www.w3.org/2000/svg">
<path d="M15.7574 56.1855C15.6342 56.1838 15.5119 56.2064 15.3976 56.2522C15.2832 56.2979 15.1792 56.3659 15.0914 56.452C15.0037 56.5382 14.934 56.6408 14.8865 56.754C14.8389 56.8672 14.8145 56.9887 14.8145 57.1114C14.8145 57.2341 14.8389 57.3556 14.8865 57.4688C14.934 57.582 15.0037 57.6846 15.0914 57.7708C15.1792 57.8569 15.2832 57.9249 15.3976 57.9706C15.5119 58.0164 15.6342 58.039 15.7574 58.0373H89.796C89.9191 58.039 90.0415 58.0164 90.1558 57.9706C90.2701 57.9249 90.3742 57.8569 90.4619 57.7708C90.5496 57.6846 90.6193 57.582 90.6669 57.4688C90.7144 57.3556 90.7389 57.2341 90.7389 57.1114C90.7389 56.9887 90.7144 56.8672 90.6669 56.754C90.6193 56.6408 90.5496 56.5382 90.4619 56.452C90.3742 56.3659 90.2701 56.2979 90.1558 56.2522C90.0415 56.2064 89.9191 56.1838 89.796 56.1855H15.7574Z" fill="#d1d1d1"/>
<path fill-rule="evenodd" clip-rule="evenodd" d="M75.3334 9.51871H24.6667C24.2986 9.51871 24.0001 9.81719 24.0001 10.1854V17.5187H76.0001V10.1854C76.0001 9.81719 75.7016 9.51871 75.3334 9.51871ZM76.0001 18.852H24.0001V53.5187C24.0001 53.8869 24.2986 54.1854 24.6667 54.1854H75.3334C75.7016 54.1854 76.0001 53.8869 76.0001 53.5187V18.852ZM22.6667 18.1854V10.1854C22.6667 9.08081 23.5622 8.18538 24.6667 8.18538H75.3334C76.438 8.18538 77.3334 9.08081 77.3334 10.1854V18.1854V53.5187C77.3334 54.6233 76.438 55.5187 75.3334 55.5187H24.6667C23.5622 55.5187 22.6667 54.6233 22.6667 53.5187V18.1854ZM59.2062 39.5762C57.3539 42.7328 53.9245 44.852 50.0001 44.852C46.0757 44.852 42.6463 42.7328 40.7939 39.5762L46.0743 32.0683L49.9322 38.2029C50.1077 38.482 50.4635 38.5938 50.7708 38.4664L56.698 36.0098L59.2062 39.5762ZM59.8856 38.1997L57.4987 34.8059C57.3163 34.5466 56.9743 34.4485 56.679 34.5709L50.779 37.0163L46.6818 30.5011C46.5616 30.31 46.3516 30.1914 46.1233 30.1856C45.895 30.1798 45.6791 30.2877 45.5491 30.4726L40.1146 38.1997C39.6109 36.9606 39.3334 35.6054 39.3334 34.1854C39.3334 28.2943 44.109 23.5187 50.0001 23.5187C55.8911 23.5187 60.6667 28.2943 60.6667 34.1854C60.6667 35.6054 60.3893 36.9606 59.8856 38.1997ZM62.0001 34.1854C62.0001 40.8128 56.6275 46.1854 50.0001 46.1854C43.3727 46.1854 38.0001 40.8128 38.0001 34.1854C38.0001 27.558 43.3727 22.1854 50.0001 22.1854C56.6275 22.1854 62.0001 27.558 62.0001 34.1854ZM72.2969 32.9641C72.6033 32.7598 73.0172 32.8426 73.2214 33.149L75.2214 36.149C75.3707 36.3729 75.3707 36.6646 75.2214 36.8886L73.2214 39.8886C73.0172 40.1949 72.6033 40.2777 72.2969 40.0735C71.9906 39.8692 71.9078 39.4553 72.112 39.149L73.8655 36.5188L72.112 33.8886C71.9078 33.5822 71.9906 33.1683 72.2969 32.9641ZM26.7787 33.149C26.983 32.8426 27.3969 32.7598 27.7032 32.9641C28.0096 33.1683 28.0924 33.5822 27.8881 33.8886L26.1347 36.5188L27.8881 39.149C28.0924 39.4553 28.0096 39.8692 27.7032 40.0735C27.3969 40.2777 26.983 40.1949 26.7787 39.8886L24.7787 36.8886C24.6294 36.6646 24.6294 36.3729 24.7787 36.149L26.7787 33.149ZM39.0001 47.1854C38.6319 47.1854 38.3334 47.4839 38.3334 47.852C38.3334 48.2202 38.6319 48.5187 39.0001 48.5187H62.0001C62.3683 48.5187 62.6668 48.2202 62.6668 47.852C62.6668 47.4839 62.3683 47.1854 62.0001 47.1854H39.0001ZM41.6667 49.1854C41.2986 49.1854 41.0001 49.4839 41.0001 49.852C41.0001 50.2202 41.2986 50.5187 41.6667 50.5187H59.3334C59.7016 50.5187 60.0001 50.2202 60.0001 49.852C60.0001 49.4839 59.7016 49.1854 59.3334 49.1854H41.6667ZM24.6667 13.1854C24.6667 12.8172 24.9652 12.5187 25.3334 12.5187H28.6667C29.0349 12.5187 29.3334 12.8172 29.3334 13.1854C29.3334 13.5536 29.0349 13.852 28.6667 13.852H25.3334C24.9652 13.852 24.6667 13.5536 24.6667 13.1854ZM31.3334 13.1854C31.3334 12.8172 31.6319 12.5187 32.0001 12.5187H37.0001C37.3683 12.5187 37.6667 12.8172 37.6667 13.1854C37.6667 13.5536 37.3683 13.852 37.0001 13.852H32.0001C31.6319 13.852 31.3334 13.5536 31.3334 13.1854ZM39.6667 13.1854C39.6667 12.8172 39.9652 12.5187 40.3334 12.5187H45.0001C45.3683 12.5187 45.6667 12.8172 45.6667 13.1854C45.6667 13.5536 45.3683 13.852 45.0001 13.852H40.3334C39.9652 13.852 39.6667 13.5536 39.6667 13.1854Z" fill="#d1d1d1"/>
<path fill-rule="evenodd" clip-rule="evenodd" d="M52.6667 32.852C53.403 32.852 54 32.2551 54 31.5187C54 30.7823 53.403 30.1854 52.6667 30.1854C51.9303 30.1854 51.3333 30.7823 51.3333 31.5187C51.3333 32.2551 51.9303 32.852 52.6667 32.852ZM52.6667 34.1854C54.1394 34.1854 55.3333 32.9915 55.3333 31.5187C55.3333 30.046 54.1394 28.8521 52.6667 28.8521C51.1939 28.8521 50 30.046 50 31.5187C50 32.9915 51.1939 34.1854 52.6667 34.1854Z" fill="#d1d1d1"/>
<path d="M95.3576 56.209C95.2379 56.207 95.1189 56.2287 95.0077 56.2732C94.8965 56.3176 94.7952 56.3838 94.7098 56.4678C94.6244 56.5518 94.5566 56.6519 94.5103 56.7623C94.464 56.8728 94.4402 56.9914 94.4402 57.1111C94.4402 57.2309 94.464 57.3495 94.5103 57.4599C94.5566 57.5704 94.6244 57.6705 94.7098 57.7545C94.7952 57.8384 94.8965 57.9047 95.0077 57.9491C95.1189 57.9935 95.2379 58.0153 95.3576 58.0133H99.0829C99.2026 58.0153 99.3216 57.9935 99.4328 57.9491C99.544 57.9047 99.6453 57.8384 99.7306 57.7545C99.816 57.6705 99.8839 57.5704 99.9302 57.4599C99.9765 57.3495 100 57.2309 100 57.1111C100 56.9914 99.9765 56.8728 99.9302 56.7623C99.8839 56.6519 99.816 56.5518 99.7306 56.4678C99.6453 56.3838 99.544 56.3176 99.4328 56.2732C99.3216 56.2287 99.2026 56.207 99.0829 56.209H95.3576Z" fill="#d1d1d1"/>
<path d="M0.838806 56.1855C0.729215 56.1838 0.620409 56.2064 0.518711 56.2522C0.417013 56.2979 0.324451 56.3659 0.246404 56.452C0.168358 56.5382 0.106384 56.6408 0.0640839 56.754C0.0217833 56.8672 0 56.9887 0 57.1114C0 57.2341 0.0217833 57.3556 0.0640839 57.4688C0.106384 57.582 0.168358 57.6846 0.246404 57.7708C0.324451 57.8569 0.417013 57.9249 0.518711 57.9706C0.620409 58.0164 0.729215 58.039 0.838806 58.0373H10.2721C10.3817 58.039 10.4905 58.0164 10.5922 57.9706C10.6939 57.9249 10.7864 57.8569 10.8645 57.7708C10.9425 57.6846 11.0045 57.582 11.0468 57.4688C11.0891 57.3556 11.1109 57.2341 11.1109 57.1114C11.1109 56.9887 11.0891 56.8672 11.0468 56.754C11.0045 56.6408 10.9425 56.5382 10.8645 56.452C10.7864 56.3659 10.6939 56.2979 10.5922 56.2522C10.4905 56.2064 10.3817 56.1838 10.2721 56.1855H0.838806Z" fill="#d1d1d1"/>
<path fill-rule="evenodd" clip-rule="evenodd" d="M32.4316 59.8755C32.3081 59.8748 32.1857 59.8986 32.0713 59.9454C31.957 59.9921 31.853 60.061 31.7654 60.1481C31.6778 60.2352 31.6083 60.3388 31.5609 60.4528C31.5134 60.5669 31.489 60.6892 31.489 60.8127C31.489 60.9362 31.5134 61.0585 31.5609 61.1726C31.6083 61.2866 31.6778 61.3902 31.7654 61.4773C31.853 61.5644 31.957 61.6333 32.0713 61.6801C32.1857 61.7269 32.3081 61.7506 32.4316 61.7499H69.4188C69.5424 61.7506 69.6648 61.7269 69.7791 61.6801C69.8935 61.6333 69.9974 61.5644 70.085 61.4773C70.1726 61.3902 70.2422 61.2866 70.2896 61.1726C70.337 61.0585 70.3615 60.9362 70.3615 60.8127C70.3615 60.6892 70.337 60.5669 70.2896 60.4528C70.2422 60.3388 70.1726 60.2352 70.085 60.1481C69.9974 60.061 69.8935 59.9921 69.7791 59.9454C69.6648 59.8986 69.5424 59.8748 69.4188 59.8755H32.4316Z" fill="#d1d1d1"/>
<path fill-rule="evenodd" clip-rule="evenodd" d="M38.0836 63.5924C37.9467 63.5906 37.8109 63.6133 37.6839 63.6591C37.5569 63.7048 37.4413 63.7727 37.3438 63.8589C37.2464 63.945 37.169 64.0477 37.1162 64.1609C37.0633 64.2741 37.0361 64.3956 37.0361 64.5183C37.0361 64.641 37.0633 64.7625 37.1162 64.8757C37.169 64.9889 37.2464 65.0915 37.3438 65.1777C37.4413 65.2638 37.5569 65.3318 37.6839 65.3775C37.8109 65.4233 37.9467 65.4459 38.0836 65.4442H48.9514C49.0883 65.4459 49.2241 65.4233 49.3511 65.3775C49.4781 65.3318 49.5937 65.2638 49.6912 65.1777C49.7886 65.0915 49.866 64.9889 49.9188 64.8757C49.9716 64.7625 49.9988 64.641 49.9988 64.5183C49.9988 64.3956 49.9716 64.2741 49.9188 64.1609C49.866 64.0477 49.7886 63.945 49.6912 63.8589C49.5937 63.7727 49.4781 63.7048 49.3511 63.6591C49.2241 63.6133 49.0883 63.5906 48.9514 63.5924H38.0836Z" fill="#d1d1d1"/>
<path fill-rule="evenodd" clip-rule="evenodd" d="M54.6379 63.5996C54.5159 63.5972 54.3947 63.6193 54.2813 63.6643C54.1679 63.7093 54.0647 63.7765 53.9775 63.8619C53.8904 63.9472 53.8212 64.0491 53.774 64.1616C53.7267 64.2741 53.7024 64.3947 53.7024 64.5167C53.7024 64.6387 53.7267 64.7596 53.774 64.8721C53.8212 64.9845 53.8904 65.0864 53.9775 65.1718C54.0647 65.2572 54.1679 65.3244 54.2813 65.3694C54.3947 65.4144 54.5159 65.4363 54.6379 65.4338H67.5921C67.714 65.4363 67.8353 65.4144 67.9487 65.3694C68.0621 65.3244 68.1653 65.2572 68.2525 65.1718C68.3396 65.0864 68.4088 64.9845 68.456 64.8721C68.5033 64.7596 68.5276 64.6387 68.5276 64.5167C68.5276 64.3947 68.5033 64.2741 68.456 64.1616C68.4088 64.0491 68.3396 63.9472 68.2525 63.8619C68.1653 63.7765 68.0621 63.7093 67.9487 63.6643C67.8353 63.6193 67.714 63.5972 67.5921 63.5996H54.6379Z" fill="#d1d1d1"/>
<path fill-rule="evenodd" clip-rule="evenodd" d="M43.6643 67.2962C43.5241 67.2944 43.385 67.3171 43.255 67.3628C43.125 67.4086 43.0066 67.4765 42.9068 67.5627C42.8071 67.6488 42.7278 67.7515 42.6737 67.8647C42.6196 67.9779 42.5918 68.0994 42.5918 68.2221C42.5918 68.3448 42.6196 68.4663 42.6737 68.5794C42.7278 68.6926 42.8071 68.7953 42.9068 68.8815C43.0066 68.9676 43.125 69.0355 43.255 69.0813C43.385 69.127 43.5241 69.1497 43.6643 69.148H54.482C54.6222 69.1497 54.7613 69.127 54.8913 69.0813C55.0213 69.0355 55.1397 68.9676 55.2395 68.8815C55.3393 68.7953 55.4185 68.6926 55.4726 68.5794C55.5267 68.4663 55.5545 68.3448 55.5545 68.2221C55.5545 68.0994 55.5267 67.9779 55.4726 67.8647C55.4185 67.7515 55.3393 67.6488 55.2395 67.5627C55.1397 67.4765 55.0213 67.4086 54.8913 67.3628C54.7613 67.3171 54.6222 67.2944 54.482 67.2962H43.6643Z" fill="#d1d1d1"/>
<path fill-rule="evenodd" clip-rule="evenodd" d="M72.1296 4.00787C71.8871 4.00787 71.6937 4.21119 71.6975 4.45347C71.6975 4.75782 71.5668 4.89606 71.2654 4.89606C70.6716 4.88202 70.6716 5.78244 71.2654 5.77388C71.5562 5.77388 71.6975 5.8539 71.6975 6.19744C71.6834 6.79113 72.5838 6.79113 72.5754 6.19744C72.5754 5.88592 72.7212 5.77388 73.0093 5.77388C73.6029 5.78792 73.6029 4.88735 73.0093 4.89606C72.6178 4.89606 72.5754 4.67201 72.5754 4.45347C72.5754 4.20571 72.3774 4.0038 72.1296 4.00787Z" fill="#d1d1d1"/>
<path fill-rule="evenodd" clip-rule="evenodd" d="M16.464 34.1855C16.1312 34.1855 15.8657 34.4645 15.8709 34.7972C15.8709 35.215 15.6924 35.4045 15.2779 35.4045C14.463 35.3904 14.463 36.6212 15.2779 36.6096C15.6771 36.6096 15.8709 36.7204 15.8709 37.1906C15.8569 38.0054 17.0873 38.0054 17.0758 37.1906C17.0758 36.7632 17.2758 36.6096 17.6713 36.6096C18.4861 36.6236 18.4861 35.3929 17.6713 35.4045C17.1341 35.4045 17.0758 35.097 17.0758 34.7972C17.0758 34.4572 16.8041 34.1801 16.464 34.1855Z" fill="#d1d1d1"/>
<path fill-rule="evenodd" clip-rule="evenodd" d="M30.7751 19.774C30.5924 19.774 30.4466 19.9271 30.4495 20.11C30.4495 20.3393 30.3512 20.4432 30.1238 20.4432C29.6765 20.4292 29.6765 21.1112 30.1238 21.1048C30.3431 21.1048 30.4495 21.1652 30.4495 21.424C30.4355 21.8712 31.1174 21.8712 31.1111 21.424C31.1111 21.1893 31.2206 21.1048 31.4379 21.1048C31.8852 21.1048 31.8852 20.4369 31.4379 20.4432C31.1429 20.4432 31.1111 20.2744 31.1111 20.11C31.1111 19.9232 30.9618 19.771 30.7751 19.774Z" fill="#d1d1d1"/>
<path fill-rule="evenodd" clip-rule="evenodd" d="M38.6428 2.18543C38.4003 2.18543 38.2069 2.38887 38.2106 2.63128C38.2106 2.93564 38.08 3.07371 37.7786 3.07371C37.1848 3.05966 37.1848 3.96026 37.7786 3.95169C38.0694 3.95169 38.2106 4.03171 38.2106 4.37526C38.1966 4.9688 39.097 4.9688 39.0886 4.37526C39.0886 4.06374 39.2344 3.95169 39.5225 3.95169C40.1161 3.96574 40.1161 3.06528 39.5225 3.07371C39.131 3.07371 39.0886 2.84982 39.0886 2.63128C39.0886 2.38353 38.8906 2.18164 38.6428 2.18543Z" fill="#d1d1d1"/>
<path fill-rule="evenodd" clip-rule="evenodd" d="M16.9868 20.8521C16.804 20.8521 16.6583 21.0052 16.6611 21.1878C16.6611 21.4171 16.5628 21.5213 16.3355 21.5213C15.8882 21.5213 15.8882 22.1891 16.3355 22.1828C16.5546 22.1828 16.6611 22.2431 16.6611 22.5019C16.647 22.9493 17.3289 22.9493 17.3226 22.5019C17.3226 22.2673 17.4321 22.1828 17.6496 22.1828C18.0969 22.1968 18.0969 21.5148 17.6496 21.5213C17.3546 21.5213 17.3226 21.3524 17.3226 21.1878C17.3226 21.0012 17.1734 20.8491 16.9868 20.8521Z" fill="#d1d1d1"/>
<path fill-rule="evenodd" clip-rule="evenodd" d="M69.3095 10.8521C69.067 10.8521 68.8735 11.0555 68.8773 11.2978C68.8773 11.6021 68.7467 11.7403 68.4453 11.7403C67.8516 11.7263 67.8516 12.6267 68.4453 12.6183C68.7361 12.6183 68.8773 12.6984 68.8773 13.0418C68.8632 13.6354 69.7637 13.6354 69.7552 13.0418C69.7552 12.7302 69.901 12.6183 70.1891 12.6183C70.7828 12.6323 70.7828 11.7316 70.1891 11.7403C69.7977 11.7403 69.7552 11.5163 69.7552 11.2978C69.7552 11.05 69.5573 10.848 69.3095 10.8521Z" fill="#d1d1d1"/>
<path fill-rule="evenodd" clip-rule="evenodd" d="M82.9866 26.8521C82.804 26.8521 82.6583 27.0055 82.6611 27.188C82.6611 27.4174 82.5627 27.5214 82.3355 27.5214C81.8882 27.5074 81.8882 28.1893 82.3355 28.183C82.5546 28.183 82.6611 28.2434 82.6611 28.5021C82.647 28.9494 83.3289 28.9494 83.3226 28.5021C83.3226 28.2674 83.4321 28.183 83.6494 28.183C84.0969 28.183 84.0969 27.515 83.6494 27.5214C83.3546 27.5214 83.3226 27.3526 83.3226 27.188C83.3226 27.0014 83.1734 26.8493 82.9866 26.8521Z" fill="#d1d1d1"/>
<path fill-rule="evenodd" clip-rule="evenodd" d="M83.7973 36.1855C83.4644 36.1855 83.199 36.4646 83.2042 36.7974C83.2042 37.2151 83.0257 37.4045 82.6111 37.4045C81.7963 37.3904 81.7963 38.6211 82.6111 38.6094C83.0102 38.6094 83.2042 38.7204 83.2042 39.1908C83.1901 40.0055 84.4206 40.0055 84.4091 39.1908C84.4091 38.7632 84.6091 38.6094 85.0045 38.6094C85.8194 38.6234 85.8194 37.3928 85.0045 37.4045C84.4673 37.4045 84.4091 37.0972 84.4091 36.7974C84.4091 36.4572 84.1373 36.1801 83.7973 36.1855Z" fill="#d1d1d1"/>
<path fill-rule="evenodd" clip-rule="evenodd" d="M19.3096 8.18544C19.067 8.18544 18.8736 8.38878 18.8774 8.6312C18.8774 8.93556 18.7468 9.07362 18.4453 9.07362C17.8516 9.05958 17.8516 9.96004 18.4453 9.95161C18.7361 9.95161 18.8774 10.0316 18.8774 10.3752C18.8634 10.9687 19.7638 10.9687 19.7554 10.3752C19.7554 10.0637 19.9012 9.95161 20.1892 9.95161C20.7829 9.96566 20.7829 9.0652 20.1892 9.07362C19.7978 9.07362 19.7554 8.84974 19.7554 8.6312C19.7554 8.38345 19.5573 8.1815 19.3096 8.18544Z" fill="#d1d1d1"/>
<path fill-rule="evenodd" clip-rule="evenodd" d="M51.0121 0.852096C50.8248 0.852096 50.6752 1.00926 50.6781 1.19662C50.6781 1.43188 50.577 1.53849 50.3441 1.53849C49.8853 1.53849 49.8853 2.2236 50.3441 2.217C50.5689 2.217 50.6781 2.27878 50.6781 2.54438C50.6781 3.00323 51.3631 3.00323 51.3566 2.54438C51.3566 2.30364 51.469 2.217 51.6919 2.217C52.1508 2.217 52.1508 1.53203 51.6919 1.53849C51.3894 1.53849 51.3566 1.36544 51.3566 1.19662C51.3581 1.00505 51.2036 0.849006 51.0121 0.852096Z" fill="#d1d1d1"/>
</svg>

