<svg xmlns="http://www.w3.org/2000/svg" width="100" height="100" viewBox="0 0 48 48" fill="none">
<path d="M37.5623 30.8424C32.4503 35.4984 25.1543 37.8264 15.7943 37.8264C13.6103 37.8264 11.3063 37.7304 8.88233 37.4184C7.97033 39.4824 7.44233 41.5224 7.44233 43.4424C7.44233 44.7624 6.36233 45.8424 5.04233 45.8424C3.72233 45.8424 2.64233 44.7624 2.64233 43.4424C2.64233 42.8664 2.66634 42.2904 2.73834 41.7144C2.78634 41.4024 2.81033 41.0904 2.88233 40.7784C3.31433 38.0664 4.41833 35.3304 5.97833 32.6424C11.5463 22.9944 28.2983 11.8104 36.2423 9.84244C24.8183 9.77044 7.44234 17.0424 2.85834 26.4744C2.85834 19.5384 8.37834 11.0664 15.9623 6.36244C26.8583 -0.405557 41.0903 3.62644 44.9063 6.36244C45.4583 6.74644 45.7943 7.37044 45.8183 8.04244C46.0103 13.5864 45.2183 23.9304 37.5623 30.8424Z" fill="#0A855C"/>
</svg>