<svg xmlns="http://www.w3.org/2000/svg" width="150" height="150" viewBox="0 0 150 150" fill="none">
    <path d="M46.5191 37.9891C45.3299 40.4167 45.3256 43.2346 46.3902 45.6759C46.8514 46.7409 47.5184 47.7327 48.377 48.5912L48.4338 48.648L48.5014 48.6049L48.4477 48.5205C48.5014 48.6049 48.5015 48.6048 48.5016 48.6047L48.502 48.6045L48.5033 48.6037L48.5081 48.6006L48.5266 48.5885C48.5427 48.5779 48.5664 48.5621 48.5971 48.5411C48.6585 48.4992 48.7479 48.4366 48.8609 48.3534C49.0868 48.187 49.407 47.9384 49.7852 47.608C50.5415 46.9474 51.531 45.9595 52.4643 44.6497C54.3317 42.029 55.9745 38.1186 55.0738 32.9681L55.0595 32.8865L54.9767 32.8854C54.1813 32.8743 53.4017 32.9646 52.6524 33.1436C50.0036 33.7726 47.7258 35.525 46.5191 37.9891ZM46.5191 37.9891L46.6089 38.0331M46.5191 37.9891L46.6089 38.0331M46.6089 38.0331C45.4332 40.4331 45.4285 43.2204 46.4819 45.6361L46.6089 38.0331Z" fill="white" stroke="#575959" stroke-width="0.2"/>
    <path d="M48.4476 48.5205C47.598 47.6709 46.938 46.6895 46.4818 45.6361C47.5258 43.8129 48.5761 41.8722 49.6108 39.8139C50.7504 37.5472 51.7678 35.3494 52.6739 33.2409C53.4154 33.0638 54.1867 32.9744 54.9736 32.9854C52.7993 38.1648 50.6235 43.3427 48.4476 48.5205Z" fill="#E1E3E5"/>
    <path d="M55.0013 68.2059C61.8862 72.0863 72.6709 72.9609 81.8441 71.2699C86.4322 70.424 90.6264 68.9348 93.7339 66.8512C96.8415 64.7674 98.8728 62.0812 99.1063 58.8425C100.146 44.4669 95.4119 34.9067 88.9595 29.287C83.9279 24.9005 77.8504 22.9183 72.6705 22.9183C65.5172 22.9183 58.8395 27.2223 54.2176 33.8577C49.595 40.4942 47.0208 49.4726 48.077 58.8465C48.5394 62.9529 51.1721 66.0479 55.0013 68.2059Z" fill="white" stroke="#575959" stroke-width="0.2"/>
    <path d="M47.6558 39.7188L47.7032 39.6308L48.36 38.4112L48.4077 38.3228L48.3191 38.2755L48.3189 38.2754C48.3183 38.2751 48.3161 38.2739 48.3122 38.2717L48.2918 38.2601C48.2741 38.2499 48.2483 38.2348 48.2151 38.2147C48.1486 38.1744 48.0525 38.1141 47.9322 38.033C47.6915 37.8709 47.3541 37.6257 46.9631 37.2917C46.1811 36.6236 45.1859 35.6008 44.3225 34.1765L44.3225 34.1765C42.0086 30.3605 41.6733 25.6025 43.3467 20.0247L43.3754 19.9288L43.2796 19.9001L41.9549 19.5035L41.8592 19.4749L41.8305 19.5706C39.5709 27.0999 41.22 32.152 43.0105 35.0676C44.964 38.2503 47.4545 39.6106 47.5678 39.6715L47.6558 39.7188Z" fill="white" stroke="#575959" stroke-width="0.2"/>
    <path d="M43.1146 21.4367C44.892 21.4367 46.3329 19.9958 46.3329 18.2183C46.3329 16.4409 44.892 15 43.1146 15C41.3371 15 39.8962 16.4409 39.8962 18.2183C39.8962 19.9958 41.3371 21.4367 43.1146 21.4367Z" fill="#006D41"/>
    <path d="M91.3987 47.5406C91.3987 50.1068 88.5817 51.687 84.9511 52.6244C81.1276 53.6136 76.3997 53.8926 73.1093 53.8613C68.3985 53.8158 59.3126 52.9975 56.0347 50.0128C55.2666 49.3136 54.8182 48.4937 54.8182 47.539C54.8182 44.7597 55.9751 42.2436 57.8484 40.4205C59.7218 38.5989 62.3083 37.4733 65.1661 37.4733H81.0493C84.3711 37.4733 87.3292 38.9955 89.2213 41.3626C90.5867 43.0713 91.3987 45.2143 91.3987 47.5406Z" fill="#006D41"/>
    <path d="M99.0064 58.8354C98.0847 71.624 68.7654 75.8488 55.0503 68.1188C63.4292 69.5093 88.3732 72.5631 92.8613 60.5457C96.7208 50.2103 91.949 36.4215 88.8937 29.3625C95.3194 34.9589 100.044 44.4869 99.0064 58.8354Z" fill="#E1E3E5"/>
    <path d="M56.2826 35.6017C57.0397 36.6018 61.6987 34.509 64.8277 32.2078C67.8266 30.0005 70.8881 26.5204 70.2125 25.536C69.6121 24.6612 66.1727 25.9075 64.0094 27.0581C59.1654 29.629 55.458 34.5122 56.2826 35.6017Z" fill="#FAFBFB"/>
    <path d="M49.4948 55.5011C49.6061 58.9169 51.6926 62.1604 52.5376 61.9393C53.4233 61.7073 53.0627 57.6268 52.6551 55.3851C52.5376 54.7408 51.8212 50.8029 50.8994 50.8202C50.1752 50.8311 49.4227 53.2876 49.4948 55.5011Z" fill="#FAFBFB"/>
    <path d="M88.1506 45.3776C88.1506 47.9313 86.0813 50.0005 83.5277 50.0005C81.554 50.0005 79.8704 48.7668 79.2058 47.0268C79.0098 46.5141 78.9032 45.9592 78.9032 45.3776C78.9032 42.824 80.9725 40.7547 83.5277 40.7547C85.4073 40.7547 87.0235 41.8771 87.7446 43.4871C88.0064 44.0639 88.1506 44.7051 88.1506 45.3776Z" fill="#002D2D"/>
    <path d="M83.5276 40.7545C85.4072 40.7545 87.025 41.877 87.7461 43.4869C88.0079 44.0638 88.1521 44.7049 88.1521 45.3775C88.1521 47.9311 86.0828 50.0004 83.5292 50.0004C81.5555 50.0004 79.8719 48.7667 79.2072 47.0266C79.0113 46.514 78.9047 45.959 78.9047 45.3775C78.9031 42.8254 80.9724 40.7545 83.5276 40.7545ZM83.5276 39.9645C80.5413 39.9645 78.113 42.3927 78.113 45.3775C78.113 46.0406 78.2322 46.6911 78.4673 47.3072C79.2621 49.3906 81.2953 50.7905 83.5276 50.7905C86.5123 50.7905 88.9406 48.3622 88.9406 45.3775C88.9406 44.6062 88.7807 43.86 88.4641 43.1608C87.5956 41.2201 85.658 39.9645 83.5276 39.9645Z" fill="white"/>
    <path d="M81.7908 45.3774C82.6384 45.3774 83.3255 44.6903 83.3255 43.8427C83.3255 42.9951 82.6384 42.308 81.7908 42.308C80.9432 42.308 80.2561 42.9951 80.2561 43.8427C80.2561 44.6903 80.9432 45.3774 81.7908 45.3774Z" fill="#FAFBFB"/>
    <path d="M87.1536 46.2757C87.4045 46.445 87.0627 48.055 85.9183 48.671C84.901 49.2181 83.5544 48.8184 83.523 48.5206C83.4995 48.3027 84.1987 48.2431 85.3666 47.5361C86.594 46.793 86.9781 46.1581 87.1536 46.2757Z" fill="#FAFBFB"/>
    <path d="M67.6418 45.3776C67.6418 47.9313 65.5726 50.0005 63.0189 50.0005C61.0453 50.0005 59.3616 48.7668 58.697 47.0268C58.501 46.5141 58.3944 45.9592 58.3944 45.3776C58.3944 42.824 60.4637 40.7547 63.0189 40.7547C64.8985 40.7547 66.5147 41.8771 67.2358 43.4871C67.496 44.0639 67.6418 44.7035 67.6418 45.3776Z" fill="#002D2D"/>
    <path d="M63.0171 40.7545C64.8967 40.7545 66.5145 41.877 67.2356 43.4869C67.4974 44.0654 67.6416 44.7049 67.6416 45.3775C67.6416 47.9311 65.5724 50.0004 63.0187 50.0004C61.0451 50.0004 59.3614 48.7651 58.6968 47.0266C58.5008 46.514 58.3942 45.959 58.3942 45.3775C58.3942 42.8238 60.4635 40.7545 63.0171 40.7545ZM63.0187 39.9645C60.0324 39.9645 57.6041 42.3927 57.6041 45.3775C57.6041 46.0406 57.7233 46.6911 57.9584 47.3072C58.7532 49.3906 60.7864 50.7905 63.0187 50.7905C66.0035 50.7905 68.4317 48.3622 68.4317 45.3775C68.4317 44.6062 68.2718 43.86 67.9551 43.1608C67.0867 41.2201 65.1475 39.9645 63.0187 39.9645Z" fill="white"/>
    <path d="M61.2817 45.3774C62.1292 45.3774 62.8163 44.6903 62.8163 43.8427C62.8163 42.9951 62.1292 42.308 61.2817 42.308C60.4341 42.308 59.7469 42.9951 59.7469 43.8427C59.7469 44.6903 60.4341 45.3774 61.2817 45.3774Z" fill="#FAFBFB"/>
    <path d="M66.643 46.2757C66.8939 46.4451 66.5521 48.055 65.4077 48.6711C64.3904 49.2182 63.0438 48.8184 63.0124 48.5222C62.9889 48.3043 63.6881 48.2447 64.8559 47.5377C66.085 46.7915 66.469 46.1582 66.643 46.2757Z" fill="#FAFBFB"/>
    <path d="M73.7193 116.232C80.951 116.232 86.8384 112.421 90.9144 106.999C94.9895 101.578 97.26 94.5399 97.26 88.0653C97.26 86.8032 97.1339 85.6681 96.8872 84.6527C96.3271 82.2957 95.1543 80.5726 93.5513 79.3169C91.9502 78.0627 89.9244 77.2784 87.6619 76.7887C83.7743 75.9473 79.1637 75.9718 74.7638 75.9952C74.0465 75.999 73.3349 76.0028 72.6329 76.0028C72.2428 76.0028 71.8428 76.0017 71.4345 76.0005C67.0649 75.9878 61.7466 75.9724 57.3848 77.3452C54.9977 78.0965 52.8888 79.2658 51.3768 81.0856C49.8636 82.9068 48.9559 85.3705 48.9559 88.6955C48.9559 93.7436 50.449 98.9341 53.0941 103.429C57.3963 110.747 64.7602 116.232 73.7193 116.232Z" fill="white" stroke="#575959" stroke-width="0.2"/>
    <path d="M53.2229 103.288L52.9301 103.15L53.0941 103.429C57.3962 110.747 64.7602 116.232 73.7193 116.232C80.951 116.232 86.8384 112.421 90.9143 106.999C94.9894 101.578 97.26 94.54 97.26 88.0655C97.26 86.8032 97.1339 85.668 96.8872 84.6527L96.7988 84.289L96.694 84.6483C94.3914 92.5397 91.0789 97.9064 87.2721 101.455C83.466 105.004 79.1602 106.74 74.8615 107.362C66.2588 108.607 57.6849 105.388 53.2229 103.288Z" fill="#E1E3E5" stroke="#575959" stroke-width="0.2"/>
    <path d="M54.0379 83.5694C52.1693 86.6168 53.4908 90.9529 56.6997 92.6553C60.0921 94.455 64.7056 92.8419 65.9675 89.2646C67.1652 85.8675 64.8576 82.0582 61.5499 80.9906C58.8959 80.1331 55.5914 81.0361 54.0379 83.5694Z" fill="#FAFBFB"/>
    <path d="M40.3102 79.1255C39.847 79.1241 39.065 79.2955 38.0743 79.5992C37.0795 79.9041 35.8634 80.346 34.5266 80.8934C31.8531 81.9881 28.6924 83.5063 25.8487 85.1986C23.0076 86.8894 20.4726 88.7598 19.0602 90.5611C18.3541 91.4618 17.9203 92.3556 17.8797 93.2088C17.8388 94.0685 18.1978 94.8703 19.0404 95.5787L19.0404 95.5787C19.5957 96.0452 20.1938 96.4258 20.8249 96.7303L20.8455 96.7402H20.8472C24.3112 98.3953 28.7675 97.7109 32.8275 95.9932C36.898 94.2711 40.5978 91.499 42.5434 88.949L42.4639 88.8883L42.5434 88.949C44.1634 86.8253 45.3049 84.898 45.6775 83.3228C45.8641 82.5336 45.8598 81.8243 45.6176 81.221C45.3746 80.6156 44.8971 80.1296 44.1625 79.7796C43.2748 79.355 42.01 79.1271 40.3102 79.1255ZM40.3102 79.1255C40.3102 79.1255 40.3101 79.1255 40.3101 79.1255L40.31 79.2255L40.3103 79.1255C40.3103 79.1255 40.3102 79.1255 40.3102 79.1255Z" fill="white" stroke="#575959" stroke-width="0.2"/>
    <path d="M44.1623 79.7794L44.0683 79.7345L44.0273 79.8303C38.898 91.8331 27.6281 95.4538 20.854 96.5413L20.539 96.5919L20.8265 96.7302C24.2935 98.3979 28.7595 97.7141 32.8275 95.993C36.8979 94.2709 40.5977 91.4988 42.5434 88.9488L42.4639 88.8882L42.5434 88.9488C44.1634 86.8252 45.3049 84.8978 45.6774 83.3226C45.8641 82.5334 45.8598 81.8241 45.6176 81.2208C45.3745 80.6154 44.897 80.1294 44.1623 79.7794Z" fill="#E1E3E5" stroke="#575959" stroke-width="0.2"/>
    <path d="M23.7388 88.6546C25.4961 87.6451 28.5592 86.2515 28.9495 86.8299C29.3493 87.4209 26.9728 90.0874 24.0335 91.6018C22.0269 92.6364 19.3886 93.323 19.0908 92.7665C18.7553 92.1379 21.4469 89.9714 23.7388 88.6546Z" fill="#FAFBFB"/>
    <path d="M110.205 84.6556L110.205 84.6556C107.777 85.768 105.646 86.457 104.027 86.4737C103.216 86.4821 102.525 86.3219 101.99 85.953C101.453 85.5828 101.084 85.0102 100.905 84.2169C100.687 83.2588 100.743 81.9739 101.113 80.3151L110.205 84.6556ZM110.205 84.6556C113.121 83.3183 116.639 80.3185 119.214 76.7265C121.788 73.1365 123.437 68.9305 122.573 65.1821L122.482 65.203M110.205 84.6556L122.482 65.203M122.482 65.203L122.482 65.203L122.482 65.203ZM121.841 63.185L121.842 63.1851C122.175 63.8308 122.414 64.497 122.573 65.1804L122.475 65.203L121.841 63.185ZM121.841 63.185C121.336 62.2071 120.633 61.6805 119.785 61.5312M121.841 63.185L119.785 61.5312M119.785 61.5312C118.944 61.3831 117.977 61.6097 116.943 62.1004M119.785 61.5312L116.943 62.1004M116.943 62.1004C114.875 63.0819 112.493 65.1434 110.219 67.5431M116.943 62.1004L110.219 67.5431M110.219 67.5431C107.942 69.9449 105.766 72.6943 104.11 75.0617M110.219 67.5431L104.11 75.0617M104.11 75.0617C103.282 76.2453 102.583 77.3345 102.067 78.2379M104.11 75.0617L102.067 78.2379M102.067 78.2379C101.553 79.1376 101.214 79.8629 101.113 80.3151L102.067 78.2379Z" fill="white" stroke="#575959" stroke-width="0.2"/>
    <path d="M100.984 84.0964L100.882 84.1153L100.905 84.2169C101.084 85.0102 101.453 85.5828 101.99 85.953C102.525 86.3219 103.216 86.4821 104.027 86.4738C105.646 86.4571 107.777 85.7681 110.205 84.6556L110.205 84.6556C113.121 83.3183 116.639 80.3186 119.214 76.7265C121.788 73.1366 123.437 68.9305 122.573 65.1821L122.501 64.8711L122.383 65.1674C119.834 71.5362 113.822 81.734 100.984 84.0964Z" fill="#E1E3E5" stroke="#575959" stroke-width="0.2"/>
    <path d="M111.058 70.9963L111.058 70.9964C111.147 71.0918 111.285 71.123 111.432 71.1203C111.582 71.1176 111.763 71.0796 111.966 71.0136C112.371 70.8815 112.881 70.6302 113.438 70.2856C114.554 69.5959 115.874 68.5227 116.943 67.2471L116.943 67.2471C117.673 66.376 118.353 65.3313 118.791 64.4506C119.01 64.0108 119.17 63.6074 119.246 63.2845C119.283 63.1234 119.301 62.977 119.291 62.8536C119.282 62.731 119.244 62.6179 119.156 62.5423L119.156 62.5423C119.057 62.4565 118.921 62.4413 118.779 62.4608C118.636 62.4806 118.468 62.5384 118.286 62.6234C117.919 62.7938 117.468 63.0842 116.982 63.4468C116.009 64.173 114.881 65.2009 113.984 66.1778C113.295 66.9269 112.441 67.974 111.817 68.8994C111.506 69.3615 111.25 69.7973 111.101 70.1526C111.027 70.3298 110.977 70.4926 110.963 70.6317C110.95 70.7691 110.969 70.902 111.058 70.9963Z" fill="#FAFBFB" stroke="#575959" stroke-width="0.2"/>
    <path d="M131.602 74.2766C130.735 75.7768 128.818 76.291 127.318 75.4241L101.328 60.4188C99.828 59.5519 99.3139 57.6347 100.181 56.1345C101.048 54.6343 102.965 54.1201 104.465 54.987L130.455 69.9923C131.955 70.8576 132.469 72.7764 131.602 74.2766Z" fill="#D36E52"/>
    <path d="M104.724 33.404C103.438 35.5908 101.927 37.4939 100.255 39.1524C92.9182 46.4231 82.5076 48.9375 74.8654 49.7511C72.097 50.049 69.6907 50.1195 67.9224 50.1117C67.4725 48.4249 67.2327 46.6551 67.2327 44.8272C67.2327 33.5137 76.4033 24.3431 87.7152 24.3431C94.8009 24.3415 101.045 27.9377 104.724 33.404Z" fill="#006D41"/>
    <path d="M75.1713 54.9244C75.1713 54.9244 86.0756 57.9671 98.7185 54.9244C98.717 54.9244 89.6671 66.6298 75.1713 54.9244Z" fill="white"/>
    <path d="M104.724 32.9259C100.939 27.3044 94.5169 23.6048 87.2306 23.6048C75.5941 23.6048 66.1617 33.0387 66.1617 44.6752C66.1617 46.5563 66.4094 48.3764 66.8703 50.1117C69.2656 59.113 77.4737 65.7456 87.229 65.7456C98.8655 65.7456 108.299 56.3117 108.299 44.6752C108.301 40.3235 106.983 36.2821 104.724 32.9259ZM87.2306 58.8324C81.2078 58.8324 76.0519 55.0513 74.0124 49.7402C73.4073 48.1663 73.0765 46.4592 73.0765 44.6752C73.0765 36.8684 79.4254 30.518 87.2306 30.518C92.9571 30.518 97.9014 33.9354 100.127 38.8374C100.938 40.6166 101.388 42.595 101.388 44.6736C101.388 52.482 95.0373 58.8324 87.2306 58.8324Z" fill="#E4B166"/>
    <path d="M96.2348 44.6751C96.2348 49.6476 92.2044 53.6779 87.2319 53.6779C83.3881 53.6779 80.1087 51.2732 78.8169 47.8856C78.436 46.8886 78.226 45.8069 78.226 44.6751C78.226 39.7026 82.2563 35.6722 87.2319 35.6722C90.8923 35.6722 94.0401 37.8559 95.4447 40.9912C95.9526 42.1167 96.2348 43.363 96.2348 44.6751Z" fill="#002D2D"/>
    <path d="M87.232 35.672C90.8924 35.672 94.0402 37.8557 95.4448 40.991C95.9527 42.1165 96.2349 43.3628 96.2349 44.6733C96.2349 49.6458 92.2045 53.6762 87.232 53.6762C83.3882 53.6762 80.1088 51.2714 78.817 47.8838C78.4361 46.8868 78.226 45.8051 78.226 44.6733C78.226 39.7024 82.2564 35.672 87.232 35.672ZM87.232 34.1326C81.4177 34.1326 76.6866 38.8621 76.6866 44.6733C76.6866 45.965 76.9186 47.2301 77.378 48.4325C78.9252 52.4895 82.885 55.214 87.2305 55.214C93.0432 55.214 97.7712 50.4845 97.7712 44.6733C97.7712 43.17 97.4592 41.7183 96.8447 40.3561C95.1548 36.5781 91.38 34.1326 87.232 34.1326Z" fill="white"/>
    <path d="M86.8054 42.1632C87.0699 40.5335 85.9631 38.9979 84.3334 38.7334C82.7037 38.4689 81.1681 39.5757 80.9036 41.2054C80.6391 42.8351 81.7458 44.3707 83.3756 44.6352C85.0053 44.8997 86.5409 43.793 86.8054 42.1632Z" fill="#FAFBFB"/>
    <path d="M94.2911 46.4229C94.7802 46.7521 94.1139 49.8874 91.8863 51.0866C89.9064 52.1526 87.2838 51.3719 87.2227 50.795C87.1772 50.3702 88.5379 50.2542 90.811 48.8778C93.2047 47.4293 93.9509 46.194 94.2911 46.4229Z" fill="#FAFBFB"/>
    <path d="M115.426 61.3139C115.426 61.3139 114.644 69.4012 123.537 65.9963C123.535 65.9963 123.618 58.7994 115.426 61.3139Z" fill="white"/>
    <path d="M119.472 63.6058C119.923 64.41 120.273 65.7425 119.787 66.103C119.155 66.5733 116.981 65.4901 116.568 63.8206C116.401 63.1434 116.468 62.1479 116.978 61.8893C117.644 61.5522 118.885 62.5618 119.472 63.6058Z" fill="#FAFBFB"/>
    <path d="M69.0695 48.2946C68.6682 48.2946 68.3249 47.9905 68.2841 47.5829C68.281 47.5453 68.2747 47.4935 68.2669 47.4261C67.4658 40.5756 69.6056 34.3365 74.1376 30.3077C80.1918 24.9245 87.4405 25.2051 89.5176 25.4183C89.9518 25.4637 90.2669 25.8509 90.223 26.2852C90.1775 26.7194 89.7888 27.0345 89.3561 26.9906C87.4405 26.7931 80.7593 26.5344 75.1879 31.4897C69.5194 36.5296 69.4018 43.5227 69.8376 47.2427C69.847 47.3195 69.8533 47.3822 69.858 47.4261C69.9019 47.8604 69.5837 48.2476 69.1494 48.2899C69.1228 48.293 69.0961 48.2946 69.0695 48.2946Z" fill="#F3E0B3"/>
    <path d="M98.2447 58.6895C98.0346 58.6895 97.8262 58.6064 97.6694 58.4418C97.37 58.1252 97.3841 57.6251 97.7008 57.3257C102.139 53.1323 104.133 47.2223 103.032 41.5146C102.949 41.0867 103.23 40.6712 103.659 40.5897C104.087 40.5082 104.503 40.7873 104.584 41.2152C105.788 47.4559 103.62 53.9083 98.7871 58.4747C98.6351 58.619 98.4391 58.6895 98.2447 58.6895Z" fill="#F3E0B3"/>
    <path d="M87.2055 61.9863C85.7022 61.9863 84.3007 61.8155 83.1485 61.5505C82.7237 61.4533 82.4572 61.0285 82.556 60.6037C82.6532 60.1789 83.078 59.9124 83.5028 60.0111C86.6428 60.7322 91.2767 60.5676 94.5499 58.5768C94.9229 58.3494 95.4089 58.4686 95.6362 58.8401C95.8635 59.2132 95.7444 59.6992 95.3729 59.9265C92.8741 61.4455 89.8783 61.9863 87.2055 61.9863Z" fill="#F3E0B3"/>
    <path d="M113.349 63.2436C113.228 63.2436 113.106 63.2123 112.995 63.1448L105.385 58.5925C105.058 58.3965 104.951 57.9717 105.147 57.644C105.343 57.3164 105.768 57.2098 106.096 57.4058L113.705 61.9582C114.032 62.1541 114.139 62.5789 113.943 62.9066C113.813 63.1245 113.584 63.2436 113.349 63.2436Z" fill="#F48B4D"/>
    <path d="M129.97 72.6822C129.862 72.6822 129.751 72.6571 129.647 72.6022L122.381 68.7631C122.044 68.5844 121.914 68.1659 122.093 67.8288C122.272 67.4918 122.69 67.3617 123.027 67.5404L130.293 71.3795C130.63 71.5582 130.76 71.9768 130.582 72.3138C130.458 72.5489 130.218 72.6822 129.97 72.6822Z" fill="#F48B4D"/>
    <path d="M98.9769 128.521C98.9769 129.139 98.4847 129.861 97.2516 130.617C96.0471 131.355 94.2708 132.038 92.0317 132.618C87.5608 133.777 81.3572 134.5 74.4858 134.5C67.6144 134.5 61.4108 133.777 56.9399 132.618C54.7008 132.038 52.9245 131.355 51.72 130.617C50.4869 129.861 49.9948 129.139 49.9948 128.521C49.9948 127.903 50.4869 127.181 51.72 126.425C52.9245 125.687 54.7008 125.004 56.9399 124.424C61.4108 123.265 67.6144 122.542 74.4858 122.542C81.3572 122.542 87.5608 123.265 92.0317 124.424C94.2708 125.004 96.0471 125.687 97.2516 126.425C98.4847 127.181 98.9769 127.903 98.9769 128.521Z" stroke="#C9CCCF"/>
</svg>